PathFileType	4	(X/Y/Z)	D:\TRACE\spotREDO_2-26-24\spot_justBody_Motion_2_3-v60.trc
DataRate	CameraRate	NumFrames	NumMarkers	Units	OrigDataRate	OrigDataStartFrame	OrigNumFrames
100.00	100.00	      38	9	mm	100.00	6126	      7000
Frame#	Time	front left toe			Front right toe			aft left toe			aft right toe			Arm			FL body			FR body			AL Body			AR Body			
		X1	Y1	Z1	X2	Y2	Z2	X3	Y3	Z3	X4	Y4	Z4	X5	Y5	Z5	X6	Y6	Z6	X7	Y7	Z7	X8	Y8	Z8	X9	Y9	Z9	

6126	61.250	-205.46718	59.65437	-231.97200	388.24115	5.05610	-230.17548	-231.99409	50.55487	285.02832	373.81638	57.46285	319.63367	101.74537	801.42090	-379.46719	25.59023	540.17096	-350.50333	181.04326	549.74799	-349.72470	10.06697	572.49109	532.71143	157.54872	577.02258	535.75568	
6127	61.260	-202.96208	71.25518	-235.96606	388.52847	4.97907	-230.37036	-231.49373	50.65365	284.83774	374.32773	57.56509	319.42303	101.29039	800.95172	-379.82321	25.12308	539.69324	-350.26877	180.78009	548.68579	-349.19162	10.60283	573.27936	533.06158	158.07632	577.63385	535.78558	
6128	61.270	-198.61227	81.85131	-237.55728	389.09238	4.79808	-230.60728	-231.03683	50.85568	284.75931	375.15958	57.84621	319.17484	100.34094	800.69159	-379.86932	25.01012	539.43274	-350.18256	180.60866	548.41718	-349.19070	10.55260	573.73309	533.13318	158.19058	578.21332	535.86469	
6129	61.280	-195.08238	91.40926	-235.78146	389.83820	5.11776	-230.34505	-230.28883	50.77155	284.75449	375.88852	58.08360	319.05679	99.58444	800.40656	-379.97696	24.92301	539.13428	-350.14645	180.54150	548.01288	-348.90475	10.26392	574.07904	533.14984	157.87682	578.69958	535.88818	
6130	61.290	-191.25969	100.30350	-232.08035	390.30200	4.98126	-230.42392	-229.82629	50.79461	284.59219	376.10242	58.10323	318.99539	99.14473	800.09515	-379.99237	24.87955	538.48865	-350.10107	180.47763	547.64313	-348.84653	9.98550	574.32764	533.05566	157.57292	579.07495	535.90735	
6131	61.300	-189.46007	109.38368	-228.24763	389.80072	4.00850	-230.99866	-229.56467	50.86111	284.44431	376.56790	58.35614	318.97607	99.18901	799.59729	-380.12994	24.95044	537.87415	-350.13358	180.43434	547.39044	-349.11908	9.81293	574.60168	533.05511	157.47522	579.63489	535.95215	
6132	61.310	-187.88676	118.62272	-226.26949	391.06000	4.68729	-230.50537	-229.03955	50.98510	284.32156	376.84100	58.48709	319.00101	99.46642	798.93024	-380.56894	24.86508	537.31580	-350.05496	180.56345	546.84851	-349.15512	9.77841	575.09418	532.96179	157.38501	580.21124	535.93878	
6133	61.320	-185.82344	126.33968	-224.86487	391.35867	4.19289	-230.82758	-228.25502	50.98092	284.35233	377.70343	58.69648	319.08624	99.67647	797.97638	-381.00528	24.94585	536.65314	-349.93344	180.67705	546.18976	-348.88449	9.63149	575.74908	532.97137	157.56204	580.79553	535.94434	
6134	61.330	-183.00029	131.90817	-224.91725	391.54486	3.60296	-231.09856	-227.53186	50.92825	284.35339	378.42709	58.66127	318.95374	99.98119	797.42316	-381.34167	24.93476	536.03363	-349.90598	180.55783	545.27356	-348.82391	9.71822	576.45544	533.07739	157.54120	581.41321	536.12042	
6135	61.340	-179.57111	134.72305	-224.88330	392.74213	4.11016	-230.83719	-227.12219	51.07935	284.31329	379.03952	58.70504	318.71732	100.19409	796.75995	-381.47968	25.01141	535.63153	-349.81165	180.71980	544.90601	-348.99786	9.37774	577.03595	532.75537	157.41826	582.12622	536.05695	
6136	61.350	-175.55151	135.37308	-223.80722	394.42737	4.90546	-230.23990	-226.56891	51.07867	284.21365	379.39114	58.72889	318.55176	100.20546	796.53290	-381.52399	25.18383	535.17291	-349.71402	180.77277	544.59088	-348.68463	9.66806	577.43536	533.05927	157.39720	582.51160	536.08679	
6137	61.360	-171.00249	133.02316	-221.40501	394.50446	4.79859	-230.27708	-225.64876	51.05585	284.17310	380.36578	58.96122	318.61691	100.13219	796.12207	-381.66818	25.49415	534.65247	-349.53552	180.99484	544.34943	-348.51218	9.22573	577.99457	532.84406	157.26244	583.14960	536.23505	
6138	61.370	-167.76636	131.01279	-218.78375	395.05688	4.29413	-230.72168	-224.98302	51.07257	284.11847	381.03189	59.06246	318.62646	99.99387	795.56427	-381.83255	25.86347	534.17175	-349.46121	181.36890	543.98438	-348.39722	9.10837	578.36407	532.83142	157.08162	583.72205	536.28375	
6139	61.380	-164.48701	130.02481	-215.96037	395.99313	4.57603	-230.43398	-224.53084	51.06165	284.00665	381.46069	59.05927	318.60281	100.25062	794.99219	-382.10358	26.02399	533.69189	-349.54871	181.71544	543.47296	-348.34747	9.03314	578.73749	532.82550	156.80556	584.29333	536.06293	
6140	61.390	-161.04364	128.98695	-213.41991	396.82822	4.66512	-230.18678	-223.82210	50.99181	284.03250	381.86496	59.06448	318.35602	100.48390	794.39099	-382.65106	26.43587	532.93573	-349.45447	181.95110	542.81903	-348.03845	9.01940	579.02448	532.85223	156.89418	584.69952	536.10468	
6141	61.400	-158.18347	128.74358	-211.28906	396.22025	3.74895	-231.07935	-223.05522	50.98663	284.08914	382.82837	59.29335	318.31497	100.77687	793.94934	-382.96075	26.52260	532.48291	-349.47211	182.00304	542.39948	-348.35922	9.12166	579.48883	532.81964	156.70970	585.19672	536.17285	
6142	61.410	-155.18268	127.96902	-209.68912	397.10834	3.45317	-231.15295	-222.21439	50.77730	284.14456	383.56702	59.37100	318.26675	100.95853	793.21350	-383.13400	26.61915	532.06342	-349.54175	182.25856	542.01147	-348.33292	9.13577	579.99316	532.73395	156.78700	585.62946	536.25323	
6143	61.420	-151.49800	126.75703	-208.04016	399.08987	4.62238	-230.43498	-221.46252	50.47611	284.22357	383.91635	59.06135	318.21173	100.93426	792.82458	-383.35565	26.88533	531.67358	-349.61755	182.48662	541.63757	-348.63519	9.16234	580.43976	532.60181	156.89172	585.92053	536.11371	
6144	61.430	-148.03545	124.47290	-206.97217	399.60663	4.62393	-230.54010	-220.76173	50.50921	284.30942	384.87979	59.09219	318.34344	101.15946	792.49420	-383.49063	26.95457	531.35364	-349.65475	182.54823	541.23785	-348.43958	9.18643	580.66290	532.58856	157.07990	586.24878	535.95093	
6145	61.440	-144.78271	120.05996	-205.97972	400.43265	5.18547	-230.25099	-220.04378	50.65552	284.28876	386.15631	58.91057	318.34366	101.33468	792.24261	-383.63498	27.06165	531.16058	-349.56320	182.62631	541.00140	-348.49710	9.15248	581.01019	532.26428	157.37941	586.55444	535.89471	
6146	61.450	-141.96077	112.74809	-205.15923	400.05411	4.43864	-231.25168	-218.96054	50.35210	284.06689	386.86835	58.83552	318.20126	101.55070	792.00745	-383.78604	27.14674	530.96344	-349.46423	182.67001	540.78101	-348.56445	9.67121	581.56201	532.64941	157.65118	586.92505	535.96423	
6147	61.460	-139.16345	103.26251	-204.59373	401.05411	4.80323	-230.92580	-218.34747	50.30690	284.18506	387.23935	58.67639	318.20877	101.68192	791.96924	-383.99338	27.10689	530.91333	-349.42358	182.63835	540.65607	-348.56317	9.95291	582.04962	532.60797	157.85191	587.37231	535.99969	
6148	61.470	-136.16626	91.96486	-203.61584	402.80341	5.91479	-230.06476	-217.68871	50.22472	284.26379	388.61435	58.78352	318.52927	101.87902	791.80164	-384.23624	27.27845	530.75812	-349.38980	182.74525	540.38605	-348.51529	10.17515	582.52307	532.73798	157.98096	587.77521	535.98083	
6149	61.480	-133.87575	80.16720	-202.87791	403.52612	6.15899	-229.88515	-216.55179	49.78298	284.41879	389.44748	58.49842	318.51709	102.25012	791.44763	-384.53699	27.36745	530.58374	-349.45959	183.02101	539.81476	-348.10370	10.10480	583.14551	532.50848	157.91943	588.27087	535.80505	
6150	61.490	-130.82225	67.86547	-200.84512	404.04526	5.82492	-230.47833	-215.90970	49.66542	284.43060	389.86151	58.44301	318.49966	102.61866	791.24194	-384.69788	27.62323	530.20581	-349.52979	183.12308	539.56360	-348.49158	10.30429	583.66205	532.50812	158.21730	588.73438	535.82062	
6151	61.500	-128.13109	56.71564	-198.99194	404.77359	5.57189	-230.41147	-214.96225	49.35736	284.29855	391.22092	58.59280	318.49347	103.03996	790.58435	-385.08994	27.81358	529.85834	-349.59402	183.50008	539.01971	-348.37247	10.50040	584.17975	532.33099	158.38005	589.12793	535.74841	
6152	61.510	-127.02041	46.25525	-197.36522	406.59830	6.47945	-229.59642	-213.89038	49.19494	284.45959	391.65439	58.54062	318.48706	103.32814	789.93500	-385.33145	27.86085	529.43726	-349.72919	183.60576	538.48419	-348.46970	10.67273	584.64246	532.41046	158.50729	589.58130	535.71661	
6153	61.520	-125.86345	35.56926	-196.70338	405.89529	5.43591	-230.59514	-213.33208	48.88300	284.60953	392.38394	58.11584	318.59421	103.74651	789.41156	-385.76678	28.15586	528.94800	-349.71698	183.73343	538.04169	-348.40219	10.83201	585.24158	532.19714	159.00758	589.94598	536.02435	
6154	61.530	-124.87675	24.94350	-196.49042	407.35568	5.88705	-230.30917	-212.52187	48.68777	284.71677	393.48825	58.06192	318.69281	104.29189	789.02393	-385.94772	28.37732	528.55365	-349.62000	184.00467	537.27808	-348.04047	11.18547	585.80884	532.11090	158.93787	590.27850	535.52124	
6155	61.540	-124.01602	14.19676	-196.57321	408.20831	6.59048	-230.26202	-211.11971	48.02210	285.08987	394.24554	57.86993	318.85898	104.95924	788.58459	-386.07751	28.44435	528.33221	-349.60913	183.93503	536.84351	-348.57312	10.98915	586.25024	531.70630	159.06609	590.60754	535.44238	
6156	61.550	-123.50108	3.75529	-197.27278	408.70670	6.30183	-230.46928	-210.51524	47.88760	284.94318	395.17072	57.53902	318.79037	105.64496	788.29419	-386.13080	28.08415	528.35706	-350.04474	184.01584	536.46307	-348.47382	11.53454	586.74597	532.16925	159.20164	590.83191	535.35034	
6157	61.560	-123.42010	2.40632	-197.73096	409.60416	6.70450	-230.15594	-209.44623	47.51407	284.95990	396.56299	57.17367	318.98944	105.82061	788.11096	-386.36356	28.59810	528.27972	-349.56470	184.09422	536.26007	-348.48312	11.83237	587.22253	532.11255	159.50287	590.91644	535.32117	
6158	61.570	-124.02249	3.68545	-196.38647	410.44421	7.96111	-229.49666	-208.49446	47.59719	285.11514	398.35788	55.15344	319.64801	107.03858	788.10583	-386.22745	28.58495	530.02161	-349.75537	184.20700	536.60742	-348.58676	12.19470	587.46045	532.04889	160.12961	590.43701	535.42120	
6159	61.580	-122.11638	4.46956	-196.73428	412.10785	8.90707	-228.80559	-207.36311	47.54617	285.15814	399.31711	55.35567	319.50995	109.14013	789.45044	-386.12573	28.69403	530.60077	-349.93472	184.47372	536.77332	-348.18936	12.14242	588.03491	532.01880	159.93896	590.79633	535.30969	
6160	61.590	-120.38110	5.16974	-196.57738	413.11691	8.82912	-229.14487	-206.30104	47.05980	285.56482	399.33884	55.51996	319.51678	110.21072	790.94373	-386.23688	29.01634	530.84039	-350.14404	184.92783	536.63214	-348.22571	12.05760	589.25317	531.82507	160.27751	591.61035	535.40955	
6161	61.600	-119.76468	5.46783	-196.54218	413.97076	9.34324	-228.88100	-205.78235	46.71193	285.58807	399.88120	55.18503	319.60043	111.50305	791.05219	-386.34079	29.53382	531.21906	-350.39706	185.30820	536.40039	-348.29611	11.80810	590.21301	531.58777	159.50073	592.04022	534.99103	
6162	61.610	-118.77876	5.41941	-196.32951	415.44467	9.97167	-228.59666	-204.84094	46.02309	285.73831	401.44052	54.90400	319.68927	112.50421	790.43579	-386.50269	29.85426	531.49097	-350.54370	185.54411	536.52509	-349.07620	11.85282	590.98969	531.48761	159.37526	592.34900	534.82123	
6163	61.620	-117.62154	5.59681	-196.17409	416.52197	10.19148	-228.36609	-203.97530	45.67096	285.71390	402.14996	54.31602	319.80273	113.40118	789.73700	-387.19327	30.19335	531.56940	-350.72519	185.72078	536.29779	-349.03589	11.63951	591.66498	531.17041	159.34892	592.79401	534.70172	
